# xmcd
#
# Track frame offsets: 
#        150
#        11472
#        31167
#        41983
#        58201
#        74442
#        90529
#        102118
#        119296
#        132983
#        147886
#        162675
#
# Disc length: 2417 seconds
#
# Revision: 0
# Processed by: cddbd v1.5.2PL0 Copyright (c) Steve Scherf et al.
# Submitted via: ExactAudioCopy v1.0b4
#
DISCID=a9096f0c
DTITLE=The Love Light Orchestra featuring John Nemeth - Live From Bar 
DTITLE=DKDC In Memphis, TN!
DYEAR=2017
DGENRE=Blues
TTITLE0=See Why I Love You?
TTITLE1=Bad Breaks
TTITLE2=I've Been Wrong So Long
TTITLE3=It's Your Voodoo Working
TTITLE4=Sometimes
TTITLE5=What About Love
TTITLE6=Poverty
TTITLE7=Lonesome And High
TTITLE8=Singin' For My Supper
TTITLE9=This Little Love Of Mine
TTITLE10=Please Send Me Someone To Love
TTITLE11=Love And Happiness
EXTD=
EXTT0=
EXTT1=
EXTT2=
EXTT3=
EXTT4=
EXTT5=
EXTT6=
EXTT7=
EXTT8=
EXTT9=
EXTT10=
EXTT11=
PLAYORDER=
